<svg width="297mm" height="210mm" version="1.1" viewBox="0 0 297 210" xmlns="http://www.w3.org/2000/svg" xmlns:xlink="http://www.w3.org/1999/xlink">
 <style>.measure-arrow
{
}
.measure-label
{

}
.measure-line
{
}</style>
 <defs>
  <filter id="filter23020" x="-.0065432" y="-.010843" width="1.0154" height="1.0218" color-interpolation-filters="sRGB">
   <feGaussianBlur stdDeviation="0.091856593"/>
  </filter>
 </defs>
 <g fill-rule="evenodd" filter="url(#filter23020)" font-family="'Sans Serif'" font-size="31.75px" font-weight="400" opacity=".6" stroke="#000" stroke-linejoin="bevel">
  <g fill-opacity="0" stroke-linecap="square">
   <g transform="matrix(.16521 0 0 .13265 151.49 93.253)">
    <path d="m689.09-345.54-46.372 400.65-1.035 6.9362-1.5 6.9198-1.967 6.8932-2.437 6.8563-2.906 6.8089-3.377 6.7509-3.846 6.6819-4.315 6.603-4.78 6.513-5.243 6.412-5.701 6.3-6.154 6.178-6.603 6.044-7.043 5.9-802.44 551.37-3.157 1.954-3.405 1.696-3.608 1.415-3.765 1.116-3.873 0.801-3.932 0.477-3.94 0.145-3.896-0.188-3.803-0.518-3.66-0.842-3.469-1.155-3.236-1.451-2.96-1.729-2.647-1.985-436.27-370.23c-2.385-2.025-3.916-4.491-4.461-7.166l-85.575-421.04-0.16-1.347 0.059-1.376 0.278-1.395 0.495-1.407 0.708-1.409 0.916-1.401 1.117-1.384 1.311-1.358 1.495-1.325 1.671-1.281 1.834-1.231 1.986-1.172 2.125-1.106 2.249-1.032 861.89-371.28 48.004-15.222 52.718-11.28 56.097-7.145 58.133-2.889 58.815 1.424 58.127 5.732 56.046 9.967 52.549 14.056 47.614 17.916 41.234 21.449 33.432 24.54 24.272 27.068 13.886 28.891 2.487 29.875" fill-rule="evenodd" stroke="#000" vector-effect="non-scaling-stroke"/>
   </g>
   <g transform="matrix(.16521 0 0 .13265 151.49 93.253)">
    <path d="m628.94-263.86 7.59-5.29 7.1-5.413 6.603-5.525 6.1-5.628 5.593-5.722 5.081-5.805 4.567-5.879 4.05-5.943 3.532-5.998 3.016-6.042 2.499-6.078 1.983-6.104 1.472-6.121 0.963-6.128-2.487-29.875-13.886-28.891-24.272-27.068-33.432-24.54-41.234-21.449-47.614-17.916-52.549-14.056-56.046-9.967-58.127-5.732-58.815-1.424-58.133 2.889-56.097 7.145-52.718 11.28-48.004 15.222-861.89 371.28-2.249 1.032-2.125 1.106-1.986 1.172-1.834 1.231-1.671 1.281-1.495 1.325-1.311 1.358-1.117 1.384-0.916 1.401-0.708 1.409-0.495 1.407-0.278 1.395-0.059 1.376 0.16 1.347c0.491 2.4092 2.077 4.6251 4.62 6.4381l473.32 337.17 2.926 1.837 3.283 1.597 3.597 1.336 3.867 1.058 4.086 0.766 4.252 0.462 4.364 0.154 4.419-0.158 4.417-0.467 4.356-0.77 4.24-1.062 4.069-1.342 3.846-1.601 3.573-1.842 888-507.02" fill-rule="evenodd" stroke="#000" vector-effect="non-scaling-stroke"/>
   </g>
   <g transform="matrix(.16521 0 0 .13265 151.49 93.253)">
    <path d="m64.623-468.78-804.13 348.92-2.205 1.019-2.082 1.091-1.945 1.156-1.797 1.213-1.635 1.263-1.465 1.306-1.285 1.339-1.095 1.365-0.898 1.382-0.696 1.391-0.488 1.39-0.278 1.381-0.064 1.362 0.151 1.335c0.487 2.4917 2.135 4.7859 4.794 6.6524l6.509 4.5673 436.99 306.64 2.897 1.792 3.249 1.558 3.559 1.303 3.824 1.031 4.04 0.746 4.203 0.45 4.312 0.148 4.366-0.156 4.362-0.457 4.302-0.753 4.187-1.039 4.017-1.31 3.795-1.565 3.525-1.799 826.36-467.19 1.117-0.632c1.962-1.115 3.533-2.391 4.645-3.77 1.098-1.383 1.735-2.865 1.887-4.383l0.023-1.025-0.124-1.03-0.271-1.03-0.415-1.026-0.559-1.017-0.698-1.003-0.835-0.984-0.967-0.961-1.095-0.933-1.217-0.901-1.333-0.865-1.443-0.825-1.547-0.781-1.643-0.734-466.62-196.01-2.26-0.845-2.4705-0.729-2.6498-0.603-2.7965-0.47-2.9083-0.33-2.9845-0.188-3.0238-0.043-3.026 0.102-2.9909 0.247-2.919 0.388-2.8113 0.525-2.6687 0.655-2.4931 0.777-2.2865 0.89" fill-rule="evenodd" stroke="#000" vector-effect="non-scaling-stroke"/>
   </g>
   <g transform="matrix(.16521 0 0 .13265 151.49 93.253)">
    <path d="m568.68-263.8 6.264 2.646-853.5 480.13-468.64-326.25 9.316-4.06 802.61-349.85 18.101-7.89 20.135 8.507 465.71 196.78" fill-rule="evenodd" stroke="#000" vector-effect="non-scaling-stroke"/>
   </g>
   <g transform="matrix(.16521 0 0 .13265 151.49 93.253)">
    <path d="m-216.63 698.28 802.44-551.37 43.13-410.77-888 507.02 42.423 455.12" fill-rule="evenodd" stroke="#000" vector-effect="non-scaling-stroke"/>
   </g>
   <g transform="matrix(.16521 0 0 .13265 151.49 93.253)">
    <path d="m452.34-277.6 0.476-0.256-378.25-163.29-742.7 328.7 361.08 243.27 759.39-408.43" fill-rule="evenodd" stroke="#000" vector-effect="non-scaling-stroke"/>
   </g>
   <g transform="matrix(.16521 0 0 .13265 151.49 93.253)">
    <path d="m452.34-277.6-377.77-163.13-742.48 328.44 360.86 243.12 759.39-408.43" fill-rule="evenodd" stroke="#000" vector-effect="non-scaling-stroke"/>
   </g>
   <g transform="matrix(.16521 0 0 .13265 151.49 93.253)">
    <path d="m-702.25 327.78 436.27 370.23-48.367-454.82-473.32-337.17 85.416 421.77" fill-rule="evenodd" stroke="#000" vector-effect="non-scaling-stroke"/>
   </g>
   <g transform="matrix(.16521 0 0 .13265 151.49 93.253)">
    <path d="m-265.98 698.01 2.647 1.985 2.96 1.729 3.236 1.451 3.469 1.155 3.66 0.842 3.803 0.518 3.896 0.188 3.94-0.145 3.932-0.477 3.873-0.801 3.765-1.116 3.608-1.415 3.405-1.696 3.157-1.954-42.423-455.12-3.573 1.842-3.846 1.601-4.069 1.342-4.24 1.062-4.356 0.77-4.417 0.467-4.419 0.158-4.364-0.154-4.252-0.462-4.086-0.766-3.867-1.058-3.597-1.336-3.283-1.597-2.926-1.837 48.367 454.82" fill-rule="evenodd" stroke="#000" vector-effect="non-scaling-stroke"/>
   </g>
   <g transform="matrix(.16521 0 0 .13265 151.49 93.253)">
    <path d="m585.82 146.9 43.13-410.77 7.59-5.29 7.1-5.413 6.603-5.525 6.1-5.628 5.593-5.722 5.081-5.805 4.567-5.879 4.05-5.943 3.532-5.998 3.016-6.042 2.499-6.078 1.983-6.104 1.472-6.121 0.963-6.128-46.372 400.65-1.035 6.9362-1.5 6.9198-1.967 6.8932-2.437 6.8563-2.906 6.8089-3.377 6.7509-3.846 6.6819-4.315 6.603-4.78 6.513-5.243 6.412-5.701 6.3-6.154 6.178-6.603 6.044-7.043 5.9" fill-rule="evenodd" stroke="#000" vector-effect="non-scaling-stroke"/>
   </g>
   <g transform="matrix(.16521 0 0 .13265 151.49 93.253)">
    <path d="m574.94-261.16-0.928 9.912-826.36 467.19-3.525 1.799-3.795 1.565-4.017 1.31-4.187 1.039-4.302 0.753-4.362 0.457-4.366 0.156-4.312-0.148-4.203-0.45-4.04-0.746-3.824-1.031-3.559-1.303-3.249-1.558-2.897-1.792-436.99-306.64-3.213-16.64 468.64 326.25 0.389 3.99-0.389-3.99 853.5-480.13" fill-rule="evenodd" stroke="#000" vector-effect="non-scaling-stroke"/>
   </g>
   <g transform="matrix(.16521 0 0 .13265 151.49 93.253)">
    <path d="m-737.88-111.34 802.61-349.85-0.1061-7.58-804.13 348.92 1.624 8.513" fill-rule="evenodd" stroke="#000" vector-effect="non-scaling-stroke"/>
   </g>
   <g transform="matrix(.16521 0 0 .13265 151.49 93.253)">
    <path d="m102.96-460.58 465.71 196.78 0.861-9.342-466.62-196.01 0.053 8.573" fill-rule="evenodd" stroke="#000" vector-effect="non-scaling-stroke"/>
   </g>
   <g transform="matrix(.16521 0 0 .13265 151.49 93.253)">
    <path d="m-706.72 320.62c0.545 2.675 2.076 5.141 4.461 7.166l-85.416-421.77c-2.543-1.813-4.129-4.0289-4.62-6.4381l85.575 421.04" fill-rule="evenodd" stroke="#000" vector-effect="non-scaling-stroke"/>
   </g>
   <g transform="matrix(.16521 0 0 .13265 151.49 93.253)">
    <path d="m74.568-441.15 5e-3 0.418-742.71 328.28 742.7-328.7" fill-rule="evenodd" stroke="#000" vector-effect="non-scaling-stroke"/>
   </g>
   <g transform="matrix(.16521 0 0 .13265 151.49 93.253)">
    <path d="m64.729-461.2 18.101-7.89 20.135 8.507-0.053-8.573-2.26-0.845-2.4705-0.729-2.6498-0.603-2.7965-0.47-2.9083-0.33-2.9845-0.188-3.0238-0.043-3.026 0.102-2.9909 0.247-2.919 0.388-2.8113 0.525-2.6687 0.655-2.4931 0.777-2.2865 0.89 0.1061 7.58" fill-rule="evenodd" stroke="#000" vector-effect="non-scaling-stroke"/>
   </g>
   <g transform="matrix(.16521 0 0 .13265 151.49 93.253)">
    <path d="m-747.19-107.28 9.316-4.06-1.624-8.513-2.205 1.019-2.082 1.091-1.945 1.156-1.797 1.213-1.635 1.263-1.465 1.306-1.285 1.339-1.095 1.365-0.898 1.382-0.696 1.391-0.488 1.39-0.278 1.381-0.064 1.362 0.151 1.335c0.487 2.4917 2.135 4.7859 4.794 6.6524l6.509 4.5673-3.213-16.64" fill-rule="evenodd" stroke="#000" vector-effect="non-scaling-stroke"/>
   </g>
   <g transform="matrix(.16521 0 0 .13265 151.49 93.253)">
    <path d="m452.34-277.6 0.476-0.256-378.24-163.08 377.77 163.34" fill-rule="evenodd" stroke="#000" vector-effect="non-scaling-stroke"/>
   </g>
   <g transform="matrix(.16521 0 0 .13265 151.49 93.253)">
    <path d="m568.68-263.8 6.264 2.646-0.928 9.912 1.117-0.632c1.962-1.115 3.533-2.391 4.645-3.77 1.098-1.383 1.735-2.865 1.887-4.383l0.023-1.025-0.124-1.03-0.271-1.03-0.415-1.026-0.559-1.017-0.698-1.003-0.835-0.984-0.967-0.961-1.095-0.933-1.217-0.901-1.333-0.865-1.443-0.825-1.547-0.781-1.643-0.734-0.861 9.342" fill-rule="evenodd" stroke="#000" vector-effect="non-scaling-stroke"/>
   </g>
  </g>
  <g fill="none" stroke-linecap="round">
   <g stroke-width="7">
    <g transform="matrix(.16521 0 0 .13265 151.49 93.253)">
     <path d="m64.623-468.78-804.13 348.92" fill-rule="evenodd" stroke="#000"/>
    </g>
    <g transform="matrix(.16521 0 0 .13265 151.49 93.253)">
     <path d="m64.623-468.78 2.2865-0.89 2.4931-0.777 2.6687-0.655 2.8113-0.525 2.919-0.388 2.9909-0.247 3.026-0.102 3.0238 0.043 2.9845 0.188 2.9083 0.33 2.7965 0.47 2.6498 0.603 2.4705 0.729 2.26 0.845" fill-rule="evenodd" stroke="#000"/>
    </g>
    <g transform="matrix(.16521 0 0 .13265 151.49 93.253)">
     <path d="m-739.5-119.86-2.205 1.019-2.082 1.091-1.945 1.156-1.797 1.213-1.635 1.263-1.465 1.306-1.285 1.339-1.095 1.365-0.898 1.382-0.696 1.391-0.488 1.39-0.278 1.381-0.064 1.362 0.151 1.335" fill-rule="evenodd" stroke="#000"/>
    </g>
    <g transform="matrix(.16521 0 0 .13265 151.49 93.253)">
     <path d="m-755.28-101.86c0.487 2.4917 2.135 4.7859 4.794 6.6524" fill-rule="evenodd" stroke="#000"/>
    </g>
    <g transform="matrix(.16521 0 0 .13265 151.49 93.253)">
     <path d="m569.54-273.14-466.62-196.01" fill-rule="evenodd" stroke="#000"/>
    </g>
    <g transform="matrix(.16521 0 0 .13265 151.49 93.253)">
     <path d="m-750.49-95.21 443.5 311.2" fill-rule="evenodd" stroke="#000"/>
    </g>
    <g transform="matrix(.16521 0 0 .13265 151.49 93.253)">
     <path d="m575.13-251.88c1.962-1.115 3.533-2.391 4.645-3.77 1.098-1.383 1.735-2.865 1.887-4.383" fill-rule="evenodd" stroke="#000"/>
    </g>
    <g transform="matrix(.16521 0 0 .13265 151.49 93.253)">
     <path d="m581.66-260.03 0.023-1.025-0.124-1.03-0.271-1.03-0.415-1.026-0.559-1.017-0.698-1.003-0.835-0.984-0.967-0.961-1.095-0.933-1.217-0.901-1.333-0.865-1.443-0.825-1.547-0.781-1.643-0.734" fill-rule="evenodd" stroke="#000"/>
    </g>
    <g transform="matrix(.16521 0 0 .13265 151.49 93.253)">
     <path d="m-306.99 215.99 2.897 1.792 3.249 1.558 3.559 1.303 3.824 1.031 4.04 0.746 4.203 0.45 4.312 0.148 4.366-0.156 4.362-0.457 4.302-0.753 4.187-1.039 4.017-1.31 3.795-1.565 3.525-1.799" fill-rule="evenodd" stroke="#000"/>
    </g>
    <g transform="matrix(.16521 0 0 .13265 151.49 93.253)">
     <path d="m-252.35 215.94 827.48-467.82" fill-rule="evenodd" stroke="#000"/>
    </g>
   </g>
   <g transform="matrix(.16521 0 0 .13265 151.49 93.253)" stroke-width="16.735">
    <path d="m85.68-489.92-861.89 371.28" fill-rule="evenodd" stroke="#000" stroke-width="16.735"/>
   </g>
   <g transform="matrix(.16521 0 0 .13265 151.49 93.253)" stroke-width="16.735">
    <path d="m-776.21-118.65-2.249 1.032-2.125 1.106-1.986 1.172-1.834 1.231-1.671 1.281-1.495 1.325-1.311 1.358-1.117 1.384-0.916 1.401-0.708 1.409-0.495 1.407-0.278 1.395-0.059 1.376 0.16 1.347" fill-rule="evenodd" stroke="#000" stroke-width="16.735"/>
   </g>
   <g transform="matrix(.16521 0 0 .13265 151.49 93.253)" stroke-width="7">
    <path d="m-792.29-100.42c0.491 2.4092 2.077 4.6251 4.62 6.4381" fill-rule="evenodd" stroke="#000"/>
   </g>
   <g>
    <g stroke-width="23.642">
     <g transform="matrix(.16521 0 0 .13265 151.49 93.253)">
      <path d="m-787.67-93.985 473.32 337.17" fill-rule="evenodd" stroke="#000" stroke-width="23.642"/>
     </g>
     <g transform="matrix(.16521 0 0 .13265 151.49 93.253)">
      <path d="m-314.35 243.19 2.926 1.837 3.283 1.597 3.597 1.336 3.867 1.058 4.086 0.766 4.252 0.462 4.364 0.154 4.419-0.158 4.417-0.467 4.356-0.77 4.24-1.062 4.069-1.342 3.846-1.601 3.573-1.842" fill-rule="evenodd" stroke="#000" stroke-width="23.642"/>
     </g>
     <g transform="matrix(.16521 0 0 .13265 151.49 93.253)">
      <path d="m-259.05 243.16 888-507.02" fill-rule="evenodd" stroke="#000" stroke-width="23.642"/>
     </g>
    </g>
    <g transform="matrix(.16521 0 0 .13265 151.49 93.253)" stroke-width="16.735">
     <path d="m628.94-263.86 7.59-5.29 7.1-5.413 6.603-5.525 6.1-5.628 5.593-5.722 5.081-5.805 4.567-5.879 4.05-5.943 3.532-5.998 3.016-6.042 2.499-6.078 1.983-6.104 1.472-6.121 0.963-6.128" fill-rule="evenodd" stroke="#000" stroke-width="16.735"/>
    </g>
    <g transform="matrix(.16521 0 0 .13265 151.49 93.253)" stroke-width="23.642">
     <path d="m689.09-345.54c1.0337-28.608-10.861-56.249-31.613-75.813-38.017-39.631-90.98-60.852-142.52-77.03-123.47-34.737-256.26-37.263-380.85-6.6241-16.358 4.3132-32.202 10.316-48.423 15.085" fill-rule="evenodd" stroke="#000" stroke-width="23.642"/>
    </g>
   </g>
   <g transform="matrix(.16521 0 0 .13265 151.49 93.253)" stroke-width="7">
    <path d="m-706.72 320.62c0.545 2.675 2.076 5.141 4.461 7.166" fill-rule="evenodd" stroke="#000"/>
   </g>
   <g stroke-width="23.642">
    <g transform="matrix(.16521 0 0 .13265 151.49 93.253)">
     <path d="m585.82 146.9 7.043-5.9 6.603-6.044 6.154-6.178 5.701-6.3 5.243-6.412 4.78-6.513 4.315-6.603 3.846-6.6819 3.377-6.7509 2.906-6.8089 2.437-6.8563 1.967-6.8932 1.5-6.9198 1.035-6.9362" fill-rule="evenodd" stroke="#000" stroke-width="23.642"/>
    </g>
    <g transform="matrix(.16521 0 0 .13265 151.49 93.253)">
     <path d="m-702.25 327.78 436.27 370.23" fill-rule="evenodd" stroke="#000" stroke-width="23.642"/>
    </g>
    <g transform="matrix(.16521 0 0 .13265 151.49 93.253)">
     <path d="m-216.63 698.28 802.44-551.37" fill-rule="evenodd" stroke="#000" stroke-width="23.642"/>
    </g>
    <g transform="matrix(.16521 0 0 .13265 151.49 93.253)">
     <path d="m-265.98 698.01 2.647 1.985 2.96 1.729 3.236 1.451 3.469 1.155 3.66 0.842 3.803 0.518 3.896 0.188 3.94-0.145 3.932-0.477 3.873-0.801 3.765-1.116 3.608-1.415 3.405-1.696 3.157-1.954" fill-rule="evenodd" stroke="#000" stroke-width="23.642"/>
    </g>
   </g>
   <g stroke-width="7">
    <g transform="matrix(.16521 0 0 .13265 151.49 93.253)">
     <path d="m585.82 146.9 43.13-410.77" fill-rule="evenodd" stroke="#000"/>
    </g>
    <g transform="matrix(.16521 0 0 .13265 151.49 93.253)">
     <path d="m574.94-261.16-853.5 480.13" fill-rule="evenodd" stroke="#000"/>
    </g>
    <g transform="matrix(.16521 0 0 .13265 151.49 93.253)">
     <path d="m574.94-261.16-0.928 9.912" fill-rule="evenodd" stroke="#000"/>
    </g>
    <g transform="matrix(.16521 0 0 .13265 151.49 93.253)">
     <path d="m-278.56 218.97 0.389 3.99" fill-rule="evenodd" stroke="#000"/>
    </g>
    <g transform="matrix(.16521 0 0 .13265 151.49 93.253)">
     <path d="m-278.56 218.97-468.64-326.25" fill-rule="evenodd" stroke="#000"/>
    </g>
    <g transform="matrix(.16521 0 0 .13265 151.49 93.253)">
     <path d="m-747.19-107.28 830.02-361.8" fill-rule="evenodd" stroke="#000"/>
    </g>
    <g transform="matrix(.16521 0 0 .13265 151.49 93.253)">
     <path d="m82.83-469.08 492.11 207.93" fill-rule="evenodd" stroke="#000"/>
    </g>
    <g transform="matrix(.16521 0 0 .13265 151.49 93.253)">
     <path d="m-668.36-112.6 361.31 243.42" fill-rule="evenodd" stroke="#000"/>
    </g>
    <g transform="matrix(.16521 0 0 .13265 151.49 93.253)">
     <path d="m-307.05 130.83 759.87-408.69" fill-rule="evenodd" stroke="#000"/>
    </g>
    <g transform="matrix(.16521 0 0 .13265 151.49 93.253)">
     <path d="m452.82-277.86-378.25-163.29" fill-rule="evenodd" stroke="#000"/>
    </g>
    <g transform="matrix(.16521 0 0 .13265 151.49 93.253)">
     <path d="m74.568-441.15-742.93 328.55" fill-rule="evenodd" stroke="#000"/>
    </g>
    <g transform="matrix(.16521 0 0 .13265 151.49 93.253)">
     <path d="m-747.19-107.28 3.213 16.64" fill-rule="evenodd" stroke="#000"/>
    </g>
    <g transform="matrix(.16521 0 0 .13265 151.49 93.253)">
     <path d="m74.568-441.15 5e-3 0.418" fill-rule="evenodd" stroke="#000"/>
    </g>
    <g transform="matrix(.16521 0 0 .13265 151.49 93.253)">
     <path d="m74.574-440.73-742.48 328.44" fill-rule="evenodd" stroke="#000"/>
    </g>
    <g transform="matrix(.16521 0 0 .13265 151.49 93.253)">
     <path d="m452.34-277.6-377.77-163.13" fill-rule="evenodd" stroke="#000"/>
    </g>
    <g transform="matrix(.16521 0 0 .13265 151.49 93.253)">
     <path d="m-706.72 320.62-85.575-421.04" fill-rule="evenodd" stroke="#000"/>
    </g>
   </g>
   <g transform="matrix(.16521 0 0 .13265 151.49 93.253)" stroke-width="23.642">
    <path d="m689.09-345.54-46.372 400.65" fill-rule="evenodd" stroke="#000" stroke-width="23.642"/>
   </g>
   <g stroke-width="7">
    <g transform="matrix(.16521 0 0 .13265 151.49 93.253)">
     <path d="m64.729-461.2-0.1061-7.58" fill-rule="evenodd" stroke="#000"/>
    </g>
    <g transform="matrix(.16521 0 0 .13265 151.49 93.253)">
     <path d="m-737.88-111.34-1.624-8.513" fill-rule="evenodd" stroke="#000"/>
    </g>
    <g transform="matrix(.16521 0 0 .13265 151.49 93.253)">
     <path d="m102.96-460.58-0.053-8.573" fill-rule="evenodd" stroke="#000"/>
    </g>
    <g transform="matrix(.16521 0 0 .13265 151.49 93.253)">
     <path d="m568.68-263.8 0.861-9.342" fill-rule="evenodd" stroke="#000"/>
    </g>
   </g>
   <g transform="matrix(.16521 0 0 .13265 151.49 93.253)" stroke-width="23.642">
    <path d="m-702.25 327.78-85.416-421.77" fill-rule="evenodd" stroke="#000" stroke-width="23.642"/>
   </g>
   <g transform="matrix(.16521 0 0 .13265 151.49 93.253)" stroke-width="7">
    <path d="m-265.98 698.01-48.367-454.82" fill-rule="evenodd" stroke="#000"/>
   </g>
   <g transform="matrix(.16521 0 0 .13265 151.49 93.253)" stroke-width="7">
    <path d="m-216.63 698.28-42.423-455.12" fill-rule="evenodd" stroke="#000"/>
   </g>
  </g>
 </g>
</svg>
