<svg width="612" height="612" version="1.1" viewBox="0 0 612 612" xmlns="http://www.w3.org/2000/svg"><title>nakamochi logo</title><rect x="25.614" y="25.614" width="560.77" height="560.77" fill="#f7931a" stroke="#f7931a" stroke-width="51.229"/><path d="m391.05 274.39v147.62h-36.238c-0.10955-45.856 0.22212-91.719-0.17054-137.57-0.63333-13.457-3.7204-27.441-11.263-38.726-5.7502-7.9783-13.757-14.306-23.321-16.921-11.544-2.9368-24.175-2.4527-35.071 2.6744-8.1663 3.832-14.622 10.959-19.255 18.61-10.667 20.901-8.1825 44.791-8.4971 67.465v104.47h-36.238v-147.62c-0.67305-37.646 27.262-73.024 63.777-81.735 35.897-9.787 76.841 7.2086 95.011 39.728 7.3788 12.684 11.295 27.334 11.265 42.006" fill="#fff"/></svg>
